<?xml version="1.0" encoding="utf-8"?>
<!-- Generator: Adobe Illustrator 25.0.1, SVG Export Plug-In . SVG Version: 6.00 Build 0)  -->
<svg version="1.1" id="Layer_1" xmlns="http://www.w3.org/2000/svg" xmlns:xlink="http://www.w3.org/1999/xlink" x="0px" y="0px"
	 viewBox="0 0 32 32" style="enable-background:new 0 0 32 32;" xml:space="preserve">
<style type="text/css">
	.st0{fill:#FFFFFF;}
</style>
<g>
	<circle cx="16" cy="16" r="16"/>
	<path d="M0,0"/>
</g>
<g>
	<path class="st0" d="M14.6,19l0-0.5c-0.1-1.1,0.3-2.4,1.3-3.6c0.9-1.1,1.5-1.9,1.5-2.9c0-1.1-0.7-1.8-2-1.8c-0.8,0-1.6,0.3-2.1,0.6
		l-0.5-1.3c0.7-0.5,1.9-0.8,3-0.8c2.4,0,3.5,1.5,3.5,3.1c0,1.4-0.8,2.4-1.8,3.6c-0.9,1.1-1.3,2-1.2,3.1l0,0.5H14.6z M14.2,22
		c0-0.8,0.5-1.3,1.2-1.3c0.8,0,1.2,0.5,1.2,1.3c0,0.7-0.5,1.3-1.3,1.3C14.7,23.3,14.2,22.7,14.2,22z"/>
</g>
</svg>
